<svg width="81.996414" height="25.351776" viewBox="0 0 81.9964 25.3518" fill="none" xmlns="http://www.w3.org/2000/svg" xmlns:xlink="http://www.w3.org/1999/xlink">
	<desc>
			Created with Pixso.
	</desc>
	<defs/>
	<path id="Vector" d="M43.21 6.37C43.21 7.28 42.47 8.01 41.54 8.01C40.62 8.01 39.88 7.28 39.88 6.37C39.88 5.45 40.6 4.72 41.54 4.72C42.49 4.74 43.21 5.48 43.21 6.37ZM36.34 9.69L36.34 10.1C36.34 10.1 35.55 9.08 33.86 9.08C31.07 9.08 28.89 11.19 28.89 14.1C28.89 17 31.04 19.13 33.86 19.13C35.58 19.13 36.34 18.09 36.34 18.09L36.34 18.52C36.34 18.72 36.5 18.88 36.7 18.88L38.78 18.88L38.78 9.33L36.7 9.33C36.5 9.33 36.34 9.51 36.34 9.69ZM36.34 15.81C35.96 16.36 35.19 16.85 34.27 16.85C32.63 16.85 31.38 15.83 31.38 14.1C31.38 12.38 32.63 11.36 34.27 11.36C35.17 11.36 35.99 11.87 36.34 12.4L36.34 15.81ZM40.32 9.33L42.77 9.33L42.77 18.88L40.32 18.88L40.32 9.33ZM77.05 9.08C75.36 9.08 74.56 10.1 74.56 10.1L74.56 4.74L72.1 4.74L72.1 18.88L74.18 18.88C74.38 18.88 74.54 18.7 74.54 18.52L74.54 18.09C74.54 18.09 75.33 19.13 77.02 19.13C79.81 19.13 81.99 17 81.99 14.11C81.99 11.21 79.81 9.08 77.05 9.08ZM76.64 16.82C75.69 16.82 74.95 16.34 74.56 15.78L74.56 12.38C74.95 11.87 75.77 11.34 76.64 11.34C78.28 11.34 79.53 12.35 79.53 14.08C79.53 15.81 78.28 16.82 76.64 16.82ZM70.82 13.22L70.82 18.9L68.36 18.9L68.36 13.5C68.36 11.92 67.85 11.29 66.47 11.29C65.73 11.29 64.96 11.67 64.47 12.23L64.47 18.88L62.01 18.88L62.01 9.33L63.96 9.33C64.16 9.33 64.32 9.51 64.32 9.69L64.32 10.1C65.03 9.36 65.98 9.08 66.93 9.08C68.01 9.08 68.9 9.39 69.62 9.99C70.49 10.7 70.82 11.62 70.82 13.22ZM56.04 9.08C54.35 9.08 53.56 10.1 53.56 10.1L53.56 4.74L51.1 4.74L51.1 18.88L53.17 18.88C53.38 18.88 53.53 18.7 53.53 18.52L53.53 18.09C53.53 18.09 54.33 19.13 56.02 19.13C58.81 19.13 60.99 17 60.99 14.11C61.01 11.21 58.84 9.08 56.04 9.08ZM55.63 16.82C54.69 16.82 53.94 16.34 53.56 15.78L53.56 12.38C53.94 11.87 54.76 11.34 55.63 11.34C57.27 11.34 58.53 12.35 58.53 14.08C58.53 15.81 57.27 16.82 55.63 16.82ZM48.97 9.08C49.72 9.08 50.1 9.21 50.1 9.21L50.1 11.47C50.1 11.47 48.05 10.78 46.77 12.23L46.77 18.9L44.31 18.9L44.31 9.33L46.39 9.33C46.59 9.33 46.74 9.51 46.74 9.69L46.74 10.1C47.21 9.56 48.2 9.08 48.97 9.08ZM23.43 18.01C23.31 17.71 23.18 17.38 23.05 17.1C22.85 16.64 22.64 16.21 22.46 15.81L22.44 15.78C20.67 11.97 18.77 8.12 16.77 4.31L16.7 4.16C16.49 3.76 16.28 3.36 16.08 2.96C15.83 2.51 15.57 2.03 15.16 1.57C14.34 0.55 13.16 0 11.91 0C10.63 0 9.47 0.55 8.63 1.52C8.25 1.97 7.96 2.46 7.71 2.91C7.51 3.31 7.3 3.71 7.09 4.11L7.02 4.26C5.04 8.07 3.12 11.92 1.35 15.73L1.33 15.78C1.15 16.19 0.94 16.62 0.74 17.07C0.61 17.35 0.48 17.66 0.36 17.99C0.02 18.93 -0.08 19.81 0.05 20.73C0.33 22.63 1.61 24.23 3.38 24.94C4.04 25.22 4.74 25.35 5.45 25.35C5.66 25.35 5.91 25.32 6.12 25.3C6.97 25.19 7.84 24.92 8.68 24.43C9.73 23.85 10.73 23.01 11.86 21.79C12.98 23.01 14.01 23.85 15.03 24.43C15.88 24.92 16.75 25.19 17.6 25.3C17.8 25.32 18.06 25.35 18.26 25.35C18.98 25.35 19.7 25.22 20.34 24.94C22.13 24.23 23.38 22.61 23.67 20.73C23.87 19.84 23.77 18.95 23.43 18.01ZM11.88 19.33C10.5 17.61 9.6 15.98 9.3 14.61C9.17 14.03 9.14 13.52 9.22 13.06C9.27 12.66 9.42 12.3 9.63 12C10.12 11.31 10.93 10.88 11.88 10.88C12.83 10.88 13.68 11.29 14.14 12C14.34 12.3 14.5 12.66 14.55 13.06C14.62 13.52 14.6 14.05 14.47 14.61C14.16 15.96 13.27 17.58 11.88 19.33ZM22.1 20.53C21.92 21.84 21.03 22.99 19.77 23.49C19.16 23.75 18.49 23.82 17.83 23.75C17.18 23.67 16.54 23.47 15.88 23.09C14.96 22.58 14.03 21.79 12.96 20.63C14.65 18.57 15.67 16.69 16.06 15.02C16.24 14.23 16.26 13.52 16.19 12.86C16.08 12.23 15.85 11.64 15.49 11.14C14.7 9.99 13.37 9.33 11.88 9.33C10.4 9.33 9.06 10.02 8.27 11.14C7.91 11.64 7.68 12.23 7.58 12.86C7.48 13.52 7.5 14.26 7.71 15.02C8.09 16.69 9.14 18.6 10.81 20.65C9.76 21.82 8.81 22.61 7.89 23.11C7.22 23.49 6.58 23.7 5.94 23.77C5.25 23.85 4.58 23.75 3.99 23.52C2.74 23.01 1.84 21.87 1.66 20.55C1.59 19.92 1.64 19.28 1.89 18.57C1.97 18.32 2.1 18.06 2.23 17.76C2.4 17.35 2.61 16.92 2.81 16.49L2.84 16.44C4.61 12.66 6.5 8.8 8.48 5.05L8.55 4.89C8.76 4.51 8.96 4.11 9.17 3.73C9.37 3.32 9.6 2.94 9.88 2.61C10.42 2 11.14 1.67 11.93 1.67C12.73 1.67 13.44 2 13.98 2.61C14.26 2.94 14.5 3.32 14.7 3.73C14.91 4.11 15.11 4.51 15.31 4.89L15.39 5.05C17.33 8.82 19.2 12.62 21 16.47L21 16.49C21.21 16.9 21.39 17.35 21.59 17.76C21.72 18.06 21.85 18.32 21.92 18.57C22.13 19.23 22.21 19.87 22.1 20.53Z" fill="#FF5A5F" fill-opacity="1.000000" fill-rule="nonzero"/>
</svg>
